<svg width="150" height="150" viewBox="0 0 150 150" fill="none" xmlns="http://www.w3.org/2000/svg">
  <style>
    path { fill:rgb(228, 228, 228); }
    @media (prefers-color-scheme: light) {
      path { fill: #0a0a0a; }
    }
  </style>
  <path fill-rule="evenodd" clip-rule="evenodd" d="M125 12.6667C125 12.2985 124.702 12 124.333 12H25.6667C25.2985 12 25 12.2985 25 12.6667V123.333C25 123.702 25.2985 124 25.6667 124H39.2857V137.333C39.2857 137.702 39.5842 138 39.9524 138H67.1905C67.5587 138 67.8571 137.702 67.8571 137.333V96.6667C67.8571 96.2985 68.1556 96 68.5238 96H81.4762C81.8444 96 82.1429 96.2985 82.1429 96.6667V137.333C82.1429 137.702 82.4413 138 82.8095 138H95.7619C96.1301 138 96.4286 137.702 96.4286 137.333V124.667C96.4286 124.298 96.7271 124 97.0952 124H110.048C110.416 124 110.714 124.298 110.714 124.667V137.333C110.714 137.702 111.013 138 111.381 138H124.333C124.702 138 125 137.702 125 137.333V96.6667C125 96.2985 124.702 96 124.333 96H111.381C111.013 96 110.714 96.2985 110.714 96.6667V109.333C110.714 109.702 110.416 110 110.048 110H97.0952C96.727 110 96.4286 109.702 96.4286 109.333V26.6667C96.4286 26.2985 96.7271 26 97.0952 26H110.048C110.416 26 110.714 26.2985 110.714 26.6667V81.3333C110.714 81.7015 111.013 82 111.381 82H124.333C124.702 82 125 81.7015 125 81.3333V12.6667ZM39.9524 82C39.5842 82 39.2857 82.2985 39.2857 82.6667V124H52.9048C53.273 124 53.5714 123.702 53.5714 123.333V82.6667C53.5714 82.2985 53.273 82 52.9048 82H39.9524ZM67.8571 67.3333C67.8571 67.7015 68.1556 68 68.5238 68H81.4762C81.8444 68 82.1429 67.7015 82.1429 67.3333V54.6667C82.1429 54.2985 81.8444 54 81.4762 54H67.8571V40.6667C67.8571 40.2985 68.1556 40 68.5238 40H81.4762C81.8444 40 82.1429 39.7015 82.1429 39.3333V26.6667C82.1429 26.2985 81.8444 26 81.4762 26H39.9524C39.5842 26 39.2857 26.2985 39.2857 26.6667V67.3333C39.2857 67.7015 39.5842 68 39.9524 68H52.9048C53.273 68 53.5714 67.7015 53.5714 67.3333V54.6667C53.5714 54.2985 53.8699 54 54.2381 54H67.8571V67.3333Z"/>
</svg>
